<?xml version="1.0" encoding="utf-8"?>
<!-- Generator: Adobe Illustrator 19.2.0, SVG Export Plug-In . SVG Version: 6.00 Build 0)  -->
<svg version="1.1" id="Layer_1" xmlns="http://www.w3.org/2000/svg" xmlns:xlink="http://www.w3.org/1999/xlink" x="0px" y="0px"
	 viewBox="0 0 612 792" style="enable-background:new 0 0 612 792;" xml:space="preserve">
<style type="text/css">
	.st0{fill:none;stroke:#000000;stroke-width:2;stroke-miterlimit:10;}
	.st1{fill:none;stroke:#000000;stroke-miterlimit:10;}
</style>
<g>
	<g>
		<path d="M143.6,384.3c0.8-11.4,1.6-25.2,10.7-33.5c4.9-4.4,12.3-7.2,18.6-4.4c5.5,2.4,8.4,8.1,9.6,13.7c5,23.3-9,47.2-24.2,63.6
			c0.9-0.1,1.9-0.1,2.8-0.2c2.1-4.6,5.3-8.6,9.5-11.5c3.9-2.6,9.4-4.5,13.1-0.6c1.8,1.9,3,4.5,4.1,6.8c3.8,7.9,5.6,16.7,6,25.5
			c0.8,16.7-2.8,34.4-10.8,49.1c-8.4,15.3-26.6,32.8-45.7,26.2c-14.7-5.1-21.6-22-26.7-35.4c-0.4-1-3.2-0.1-2.9,0.8
			c4.9,13,11.4,28.7,24.9,35c13.6,6.3,29.5-0.2,39.9-9.6c11.5-10.3,18.3-24.9,21.7-39.7c4-17.2,4.3-36.5-3.5-52.7
			c-3.4-7.1-7.8-12.1-16.1-9.2c-7.4,2.6-13.2,8.6-16.4,15.6c-0.5,1.1,2.4,0.2,2.8-0.2c9.7-10.6,18-22.9,22.3-36.7
			c3.5-11.4,5.9-28.5-2.9-38.3c-6.9-7.6-18.5-5.8-26.2-0.3c-11.3,8.2-12.6,23.3-13.5,36.1C140.6,385.8,143.5,385.3,143.6,384.3
			L143.6,384.3z"/>
	</g>
</g>
<g>
	<g>
		<path d="M210.9,362.7c8.7,29.3-9.6,60.3,1.9,89.1c7,17.5,31.5,30.5,47.1,15.1c11.9-11.7,9-29.8,5.7-44.5c-0.2-0.9-3-0.2-2.9,0.8
			c0.8,9.2,2.4,19,8.9,26c5,5.4,12.2,8.3,19.4,8.8c14.8,1.2,28.4-6.5,35.8-19.3c9.9-17.1,7.8-37.6,0.7-55.3
			c-7.7-19.3-19.9-37.3-32.6-53.7c-14.8-19.1-31.9-36.3-50.7-51.4c-0.7-0.6-3.4,0.5-2.7,1.1c29.2,23.4,54.2,52,73,84.5
			c9.3,16.1,17.5,34.3,16,53.3c-1.4,17.1-11.2,35.6-29.4,39c-8.7,1.6-18.3-0.3-25-6.3c-7.8-6.9-9.6-17.6-10.5-27.5
			c-1,0.3-1.9,0.5-2.9,0.8c3.4,15,6.9,37.5-9.5,46.7c-13.1,7.3-29.6-3.4-35.8-15.1c-15.2-28.9,5.4-62.6-3.6-92.9
			C213.6,361.1,210.7,361.8,210.9,362.7L210.9,362.7z"/>
	</g>
</g>
<g>
	<g>
		<path d="M128.2,605c2.3-50.1,50.7-77.4,92.8-91.5c23.3-7.8,47.4-13.6,70.2-22.9c20.1-8.3,38.6-19.6,54.2-34.8
			c16.5-16.1,29.3-35.6,37.6-57.1c0.7-1.8-2-2.1-2.6-0.5c-8,20.8-20.3,39.6-36.1,55.3c-17.2,16.9-37.8,28.8-60.2,37.2
			c-43.2,16.3-93,22.6-128.3,54.9c-16.9,15.5-29.3,36.4-30.4,59.7C125.4,607,128.1,606.6,128.2,605L128.2,605z"/>
	</g>
</g>
<g>
	<g>
		<path d="M427.1,129.4c-6.6,7-14.2,13.1-22.6,17.9c-8.8,5.1-18.8,9.7-29.1,10.4c-9.2,0.6-18.9-3.1-22.7-12
			c-1.9-4.4-1.8-10.2,1.7-13.9c4.1-4.4,11.4-4.3,16.9-3.3c19.1,3.7,31.1,22.1,50,26.8c15,3.7,32.4-1.8,37.8-17.4
			c1.4-3.9,1.9-8.6,0.5-12.6c-1.4-4.3-5.9-4.2-9.7-4c-9.4,0.5-18.4,4.2-25.6,10.3c-0.5,0.4,0.1,0.5,0.5,0.2
			c7.8-6.5,18.5-10.7,28.7-9.8c5.6,0.5,6.4,6.1,6,10.8c-0.4,4.6-2.3,9.1-5.2,12.7c-6.4,8.1-16.5,11.2-26.5,10.2
			c-10.1-1-18.7-5.9-26.8-11.7c-7.8-5.7-15.5-12-24.8-15c-6.7-2.2-16-3-21.6,2.1c-5.7,5.2-4.4,13.9,0.1,19.3
			c5.4,6.6,13.7,8.7,21.9,7.8c9.7-1,19.3-5.3,27.7-10.1c8.8-5,16.8-11.3,23.7-18.6C428.2,129,427.3,129.1,427.1,129.4L427.1,129.4z"
			/>
	</g>
</g>
<path class="st0" d="M208,496.1"/>
<path class="st1" d="M206.3,486.7"/>
</svg>
